<?xml version="1.0" encoding="UTF-8"?>
<svg width="752px" height="81px" viewBox="0 0 752 81" version="1.1" xmlns="http://www.w3.org/2000/svg" xmlns:xlink="http://www.w3.org/1999/xlink">
    <!-- Generator: Sketch 63.1 (92452) - https://sketch.com -->
    <title>Group</title>
    <desc>Created with Sketch.</desc>
    <g id="Page-1" stroke="none" stroke-width="1" fill="none" fill-rule="evenodd">
        <g id="Group" fill-rule="nonzero">
            <g id="zaikio_secondary_rgb_pos">
                <path d="M0,0 L40,0 L40,40 L0,40 L0,0 Z M40,40 L80,40 L80,80 L40,80 L40,40 Z" id="Shape" fill="#40F1A4"></path>
                <circle id="Oval" fill="#000000" cx="60" cy="20" r="20"></circle>
                <circle id="Oval" fill="#000000" cx="20" cy="60" r="20"></circle>
                <path d="M451.32,0 L476.8,0 L476.8,79.94 L451.32,79.94 L451.32,0 Z M441.38,0.1 L433.22,0 L410.35,0 L392.75,28.51 L378.48,28.51 L378.48,0 L352.67,0 L352.67,79.84 L378.48,79.84 L378.48,51.33 L393.92,51.33 L411.52,79.84 L434.98,79.84 L442.68,79.94 L416.21,37.64 L441.38,0.1 Z M121.16,22.94 L129.26,22.84 L160.5,22.84 L160.5,23.98 L120,58.24 L120,79.94 L199.82,79.94 L199.82,57.1 L159.33,57.1 L159.33,55.96 L199.82,21.7 L199.82,0 L121.15,0 L121.15,22.94 L121.16,22.94 Z M313.61,79.94 L339.09,79.94 L339.09,0 L313.61,0 L313.61,79.94 Z M273.65,0 L303.42,67.95 L303.42,79.94 L278.32,79.94 L274.23,67.95 L239.2,67.95 L235.11,79.94 L210.01,79.94 L210.01,67.95 L239.79,0 L273.65,0 Z M266.64,47.39 L257.3,22.84 L256.13,22.84 L246.79,47.39 L266.64,47.39 Z M570,7.33 L570,72.74 C570,76.75 566.74,80.01 562.72,80.01 L497.19,80.01 C493.17,80.01 489.91,76.76 489.91,72.74 L489.91,7.33 C489.91,3.32 493.17,0.06 497.19,0.06 L562.72,0.06 C566.74,0.06 570,3.31 570,7.33 Z M547.24,23.68 L546.33,22.77 L513.56,22.77 L512.65,23.68 L512.65,56.38 L513.56,57.29 L546.33,57.29 L547.24,56.38 L547.24,23.68 Z" id="Shape" fill="#000000"></path>
            </g>
            <path d="M597.627,34.59 C602.992,34.59 606.53,31.197 606.53,24.469 C606.53,17.741 602.992,14.348 597.627,14.348 L590,14.348 L590,34.59 L597.627,34.59 Z M597.627,30.675 L594.408,30.675 L594.408,18.263 L597.627,18.263 C600.237,18.263 601.861,19.684 601.861,22.903 L601.861,26.035 C601.861,29.254 600.237,30.675 597.627,30.675 Z M623.988,34.59 L623.988,30.675 L614.621,30.675 L614.621,26.296 L622.654,26.296 L622.654,22.41 L614.621,22.41 L614.621,18.263 L623.988,18.263 L623.988,14.348 L610.213,14.348 L610.213,34.59 L623.988,34.59 Z M637.444,34.59 L644.027,14.348 L639.706,14.348 L636.69,24.063 L635.153,30.414 L635.066,30.414 L633.471,24.063 L630.455,14.348 L625.989,14.348 L632.514,34.59 L637.444,34.59 Z M660.441,34.59 L660.441,30.675 L651.074,30.675 L651.074,26.296 L659.107,26.296 L659.107,22.41 L651.074,22.41 L651.074,18.263 L660.441,18.263 L660.441,14.348 L646.666,14.348 L646.666,34.59 L660.441,34.59 Z M676.391,34.59 L676.391,30.675 L668.677,30.675 L668.677,14.348 L664.269,14.348 L664.269,34.59 L676.391,34.59 Z M686.599,34.938 C691.964,34.938 695.502,31.342 695.502,24.469 C695.502,17.596 691.964,14 686.599,14 C681.234,14 677.696,17.596 677.696,24.469 C677.696,31.342 681.234,34.938 686.599,34.938 Z M686.599,31.023 C683.96,31.023 682.365,29.196 682.365,25.977 L682.365,22.961 C682.365,19.742 683.96,17.915 686.599,17.915 C689.238,17.915 690.833,19.742 690.833,22.961 L690.833,25.977 C690.833,29.196 689.238,31.023 686.599,31.023 Z M703.593,34.59 L703.593,27.282 L708.755,27.282 C712.525,27.282 714.903,24.643 714.903,20.815 C714.903,16.987 712.525,14.348 708.755,14.348 L699.185,14.348 L699.185,34.59 L703.593,34.59 Z M708.233,23.454 L703.593,23.454 L703.593,18.176 L708.233,18.176 C709.538,18.176 710.35,18.872 710.35,20.177 L710.35,21.453 C710.35,22.758 709.538,23.454 708.233,23.454 Z M731.984,34.59 L731.984,30.675 L722.617,30.675 L722.617,26.296 L730.65,26.296 L730.65,22.41 L722.617,22.41 L722.617,18.263 L731.984,18.263 L731.984,14.348 L718.209,14.348 L718.209,34.59 L731.984,34.59 Z M740.22,34.59 L740.22,27.166 L743.381,27.166 L746.919,34.59 L751.82,34.59 L747.847,26.644 C750.312,25.716 751.53,23.541 751.53,20.815 C751.53,16.958 749.152,14.348 745.411,14.348 L735.812,14.348 L735.812,34.59 L740.22,34.59 Z M744.86,23.454 L740.22,23.454 L740.22,18.176 L744.86,18.176 C746.165,18.176 746.977,18.872 746.977,20.177 L746.977,21.453 C746.977,22.758 746.165,23.454 744.86,23.454 Z M594.408,67.59 L594.408,59.296 L602.122,59.296 L602.122,67.59 L606.53,67.59 L606.53,47.348 L602.122,47.348 L602.122,55.41 L594.408,55.41 L594.408,47.348 L590,47.348 L590,67.59 L594.408,67.59 Z M618.826,67.938 C624.626,67.938 626.772,65.27 626.772,59.296 L626.772,47.348 L622.48,47.348 L622.48,59.76 C622.48,62.602 621.436,64.023 618.826,64.023 C616.216,64.023 615.172,62.602 615.172,59.76 L615.172,47.348 L610.88,47.348 L610.88,59.296 C610.88,65.27 613.026,67.938 618.826,67.938 Z M641.852,67.59 C644.839,67.59 647.072,65.009 647.072,61.819 C647.072,58.339 644.433,57.063 642.519,57.063 L642.519,56.889 C644.578,56.802 646.289,55.642 646.289,52.539 C646.289,49.407 644.288,47.348 640.953,47.348 L631.122,47.348 L631.122,67.59 L641.852,67.59 Z M639.909,55.642 L635.53,55.642 L635.53,51.06 L639.909,51.06 C641.069,51.06 641.765,51.756 641.765,52.916 L641.765,53.786 C641.765,54.946 641.069,55.642 639.909,55.642 Z M640.605,63.878 L635.53,63.878 L635.53,59.238 L640.605,59.238 C641.765,59.238 642.49,59.905 642.49,61.065 L642.49,62.051 C642.49,63.211 641.765,63.878 640.605,63.878 Z" id="DEVELOPERHUB" fill="#000000"></path>
        </g>
    </g>
</svg>