<svg width="752" height="81" viewBox="0 0 752 81" fill="none" xmlns="http://www.w3.org/2000/svg">
<path d="M0 0H40V40H0V0ZM40 40H80V80H40V40Z" fill="#40F1A4"/>
<path d="M60 40C71.0457 40 80 31.0457 80 20C80 8.9543 71.0457 0 60 0C48.9543 0 40 8.9543 40 20C40 31.0457 48.9543 40 60 40Z" fill="white"/>
<path d="M20 80C31.0457 80 40 71.0457 40 60C40 48.9543 31.0457 40 20 40C8.9543 40 0 48.9543 0 60C0 71.0457 8.9543 80 20 80Z" fill="white"/>
<path d="M451.32 0H476.8V79.94H451.32V0ZM441.38 0.1L433.22 0H410.35L392.75 28.51H378.48V0H352.67V79.84H378.48V51.33H393.92L411.52 79.84H434.98L442.68 79.94L416.21 37.64L441.38 0.1ZM121.16 22.94L129.26 22.84H160.5V23.98L120 58.24V79.94H199.82V57.1H159.33V55.96L199.82 21.7V0H121.15V22.94H121.16ZM313.61 79.94H339.09V0H313.61V79.94ZM273.65 0L303.42 67.95V79.94H278.32L274.23 67.95H239.2L235.11 79.94H210.01V67.95L239.79 0H273.65ZM266.64 47.39L257.3 22.84H256.13L246.79 47.39H266.64ZM570 7.33V72.74C570 76.75 566.74 80.01 562.72 80.01H497.19C493.17 80.01 489.91 76.76 489.91 72.74V7.33C489.91 3.32 493.17 0.06 497.19 0.06H562.72C566.74 0.06 570 3.31 570 7.33ZM547.24 23.68L546.33 22.77H513.56L512.65 23.68V56.38L513.56 57.29H546.33L547.24 56.38V23.68Z" fill="white"/>
<path d="M597.627 34.59C602.992 34.59 606.53 31.197 606.53 24.469C606.53 17.741 602.992 14.348 597.627 14.348H590V34.59H597.627ZM597.627 30.675H594.408V18.263H597.627C600.237 18.263 601.861 19.684 601.861 22.903V26.035C601.861 29.254 600.237 30.675 597.627 30.675ZM623.988 34.59V30.675H614.621V26.296H622.654V22.41H614.621V18.263H623.988V14.348H610.213V34.59H623.988ZM637.444 34.59L644.027 14.348H639.706L636.69 24.063L635.153 30.414H635.066L633.471 24.063L630.455 14.348H625.989L632.514 34.59H637.444ZM660.441 34.59V30.675H651.074V26.296H659.107V22.41H651.074V18.263H660.441V14.348H646.666V34.59H660.441ZM676.391 34.59V30.675H668.677V14.348H664.269V34.59H676.391ZM686.599 34.938C691.964 34.938 695.502 31.342 695.502 24.469C695.502 17.596 691.964 14 686.599 14C681.234 14 677.696 17.596 677.696 24.469C677.696 31.342 681.234 34.938 686.599 34.938ZM686.599 31.023C683.96 31.023 682.365 29.196 682.365 25.977V22.961C682.365 19.742 683.96 17.915 686.599 17.915C689.238 17.915 690.833 19.742 690.833 22.961V25.977C690.833 29.196 689.238 31.023 686.599 31.023ZM703.593 34.59V27.282H708.755C712.525 27.282 714.903 24.643 714.903 20.815C714.903 16.987 712.525 14.348 708.755 14.348H699.185V34.59H703.593ZM708.233 23.454H703.593V18.176H708.233C709.538 18.176 710.35 18.872 710.35 20.177V21.453C710.35 22.758 709.538 23.454 708.233 23.454ZM731.984 34.59V30.675H722.617V26.296H730.65V22.41H722.617V18.263H731.984V14.348H718.209V34.59H731.984ZM740.22 34.59V27.166H743.381L746.919 34.59H751.82L747.847 26.644C750.312 25.716 751.53 23.541 751.53 20.815C751.53 16.958 749.152 14.348 745.411 14.348H735.812V34.59H740.22ZM744.86 23.454H740.22V18.176H744.86C746.165 18.176 746.977 18.872 746.977 20.177V21.453C746.977 22.758 746.165 23.454 744.86 23.454ZM594.408 67.59V59.296H602.122V67.59H606.53V47.348H602.122V55.41H594.408V47.348H590V67.59H594.408ZM618.826 67.938C624.626 67.938 626.772 65.27 626.772 59.296V47.348H622.48V59.76C622.48 62.602 621.436 64.023 618.826 64.023C616.216 64.023 615.172 62.602 615.172 59.76V47.348H610.88V59.296C610.88 65.27 613.026 67.938 618.826 67.938ZM641.852 67.59C644.839 67.59 647.072 65.009 647.072 61.819C647.072 58.339 644.433 57.063 642.519 57.063V56.889C644.578 56.802 646.289 55.642 646.289 52.539C646.289 49.407 644.288 47.348 640.953 47.348H631.122V67.59H641.852ZM639.909 55.642H635.53V51.06H639.909C641.069 51.06 641.765 51.756 641.765 52.916V53.786C641.765 54.946 641.069 55.642 639.909 55.642ZM640.605 63.878H635.53V59.238H640.605C641.765 59.238 642.49 59.905 642.49 61.065V62.051C642.49 63.211 641.765 63.878 640.605 63.878Z" fill="white"/>
</svg>
