<svg width="24" height="24" fill="none" xmlns="http://www.w3.org/2000/svg"><path d="M10.97 4.88a.252.252 0 00-.119-.25C9.566 3.832 6.645 2.573 1.016 2.5a.511.511 0 00-.516.507V19a.506.506 0 00.502.507c5.247.067 8.143 1.167 9.56 1.96a.252.252 0 00.379-.219V5.197c.003-.106.012-.211.028-.316zM13.03 4.88a.252.252 0 01.119-.25c1.286-.798 4.206-2.057 9.835-2.13a.512.512 0 01.516.507V19a.507.507 0 01-.502.507c-5.247.067-8.143 1.167-9.56 1.96a.252.252 0 01-.379-.219V5.197a2.562 2.562 0 00-.028-.316z" fill="#fff"/></svg>
